<svg xmlns="http://www.w3.org/2000/svg" width="21" height="16" viewBox="0 0 21 16">
  <defs>
    <style>
      .cls-1 {
        fill: #fff;
        fill-rule: evenodd;
      }
    </style>
  </defs>
  <path id="header_sns_discord.svg" class="cls-1" d="M1558.79,34.339a17.371,17.371,0,0,0-4.33-1.34,11.966,11.966,0,0,0-.56,1.134,16,16,0,0,0-4.8,0,11.99,11.99,0,0,0-.56-1.134,17.458,17.458,0,0,0-4.33,1.343,17.678,17.678,0,0,0-3.11,11.974h0A17.353,17.353,0,0,0,1546.41,49a13.207,13.207,0,0,0,1.14-1.844,11.265,11.265,0,0,1-1.79-.86c0.15-.11.29-0.223,0.44-0.332a12.393,12.393,0,0,0,10.61,0c0.15,0.118.29,0.231,0.44,0.332a11.272,11.272,0,0,1-1.79.862A12.287,12.287,0,0,0,1556.6,49a17.385,17.385,0,0,0,5.31-2.68h0A17.613,17.613,0,0,0,1558.79,34.339Zm-10.77,9.566a2.123,2.123,0,1,1,1.89-2.107A2.011,2.011,0,0,1,1548.02,43.905Zm6.97,0a2.124,2.124,0,1,1,1.89-2.107A2.011,2.011,0,0,1,1554.99,43.905Z" transform="translate(-1541 -33)"/>
</svg>
