<svg xmlns="http://www.w3.org/2000/svg" width="20" height="14" viewBox="0 0 20 14">
  <defs>
    <style>
      .cls-1 {
        fill: #fff;
        fill-rule: evenodd;
      }
    </style>
  </defs>
  <path id="header_sns_youtube.svg" class="cls-1" d="M1561.58,36.181a2.508,2.508,0,0,0-1.77-1.768C1558.25,34,1552,34,1552,34s-6.25,0-7.81.418a2.508,2.508,0,0,0-1.77,1.768,27.8,27.8,0,0,0,0,9.628,2.508,2.508,0,0,0,1.77,1.768C1545.75,48,1552,48,1552,48s6.25,0,7.81-.418a2.508,2.508,0,0,0,1.77-1.768A27.8,27.8,0,0,0,1561.58,36.181Zm-11.63,7.768V38.041L1555.18,41Z" transform="translate(-1542 -34)"/>
</svg>
